<mxfile host="app.diagrams.net" agent="Mozilla/5.0 (Windows NT 10.0; Win64; x64) AppleWebKit/537.36 (KHTML, like Gecko) Chrome/131.0.0.0 Safari/537.36 Edg/131.0.0.0" version="26.2.7">
  <diagram name="Page-1" id="7ZqOdQv0MqyEA62jrbyN">
    <mxGraphModel dx="1893" dy="1061" grid="1" gridSize="10" guides="1" tooltips="1" connect="1" arrows="1" fold="1" page="1" pageScale="1" pageWidth="1654" pageHeight="2336" math="0" shadow="0">
      <root>
        <mxCell id="0" />
        <mxCell id="1" parent="0" />
        <mxCell id="GDJ8opukmi6f3HJeADg8-29" style="edgeStyle=orthogonalEdgeStyle;rounded=0;orthogonalLoop=1;jettySize=auto;html=1;entryX=0.126;entryY=0.27;entryDx=0;entryDy=0;entryPerimeter=0;" edge="1" parent="1" target="GDJ8opukmi6f3HJeADg8-8">
          <mxGeometry relative="1" as="geometry">
            <mxPoint x="200" y="320" as="targetPoint" />
            <mxPoint x="200" y="590" as="sourcePoint" />
            <Array as="points">
              <mxPoint x="200" y="580" />
              <mxPoint x="200" y="97" />
            </Array>
          </mxGeometry>
        </mxCell>
        <mxCell id="GDJ8opukmi6f3HJeADg8-61" style="edgeStyle=orthogonalEdgeStyle;rounded=0;orthogonalLoop=1;jettySize=auto;html=1;exitX=1;exitY=0.5;exitDx=0;exitDy=0;entryX=0;entryY=0.25;entryDx=0;entryDy=0;" edge="1" parent="1" source="GDJ8opukmi6f3HJeADg8-2" target="GDJ8opukmi6f3HJeADg8-3">
          <mxGeometry relative="1" as="geometry" />
        </mxCell>
        <mxCell id="GDJ8opukmi6f3HJeADg8-2" value="Program Counter" style="rounded=0;whiteSpace=wrap;html=1;" vertex="1" parent="1">
          <mxGeometry x="120" y="495" width="60" height="190" as="geometry" />
        </mxCell>
        <mxCell id="GDJ8opukmi6f3HJeADg8-3" value="Instruction Memory" style="rounded=0;whiteSpace=wrap;html=1;" vertex="1" parent="1">
          <mxGeometry x="325" y="490" width="170" height="190" as="geometry" />
        </mxCell>
        <mxCell id="GDJ8opukmi6f3HJeADg8-4" value="Registers" style="rounded=0;whiteSpace=wrap;html=1;" vertex="1" parent="1">
          <mxGeometry x="705" y="490" width="170" height="190" as="geometry" />
        </mxCell>
        <mxCell id="GDJ8opukmi6f3HJeADg8-5" value="ALU" style="html=1;shadow=0;dashed=0;align=center;verticalAlign=middle;shape=mxgraph.arrows2.arrow;dy=0;dx=30;notch=23;" vertex="1" parent="1">
          <mxGeometry x="1030" y="542.5" width="140" height="100" as="geometry" />
        </mxCell>
        <mxCell id="GDJ8opukmi6f3HJeADg8-6" value="Data Memory" style="rounded=0;whiteSpace=wrap;html=1;" vertex="1" parent="1">
          <mxGeometry x="1285" y="525" width="170" height="190" as="geometry" />
        </mxCell>
        <mxCell id="GDJ8opukmi6f3HJeADg8-8" value="Adder" style="html=1;shadow=0;dashed=0;align=center;verticalAlign=middle;shape=mxgraph.arrows2.arrow;dy=0;dx=30;notch=23;" vertex="1" parent="1">
          <mxGeometry x="340" y="70" width="140" height="100" as="geometry" />
        </mxCell>
        <mxCell id="GDJ8opukmi6f3HJeADg8-9" value="Adder" style="html=1;shadow=0;dashed=0;align=center;verticalAlign=middle;shape=mxgraph.arrows2.arrow;dy=0;dx=30;notch=23;" vertex="1" parent="1">
          <mxGeometry x="1060" y="150" width="140" height="100" as="geometry" />
        </mxCell>
        <mxCell id="GDJ8opukmi6f3HJeADg8-27" style="edgeStyle=orthogonalEdgeStyle;rounded=0;orthogonalLoop=1;jettySize=auto;html=1;entryX=0;entryY=1;entryDx=0;entryDy=0;" edge="1" parent="1" source="GDJ8opukmi6f3HJeADg8-10" target="GDJ8opukmi6f3HJeADg8-11">
          <mxGeometry relative="1" as="geometry">
            <Array as="points">
              <mxPoint x="910" y="790" />
              <mxPoint x="910" y="388" />
            </Array>
          </mxGeometry>
        </mxCell>
        <mxCell id="GDJ8opukmi6f3HJeADg8-120" style="edgeStyle=orthogonalEdgeStyle;rounded=0;orthogonalLoop=1;jettySize=auto;html=1;" edge="1" parent="1" source="GDJ8opukmi6f3HJeADg8-10">
          <mxGeometry relative="1" as="geometry">
            <mxPoint x="900" y="960" as="targetPoint" />
            <Array as="points">
              <mxPoint x="900" y="840" />
            </Array>
          </mxGeometry>
        </mxCell>
        <mxCell id="GDJ8opukmi6f3HJeADg8-10" value="Immediate Generator" style="ellipse;whiteSpace=wrap;html=1;" vertex="1" parent="1">
          <mxGeometry x="687" y="800" width="140" height="80" as="geometry" />
        </mxCell>
        <mxCell id="GDJ8opukmi6f3HJeADg8-11" value="Shift Left 1" style="ellipse;whiteSpace=wrap;html=1;" vertex="1" parent="1">
          <mxGeometry x="950" y="322" width="110" height="80" as="geometry" />
        </mxCell>
        <mxCell id="GDJ8opukmi6f3HJeADg8-34" style="edgeStyle=orthogonalEdgeStyle;rounded=0;orthogonalLoop=1;jettySize=auto;html=1;entryX=0;entryY=0.5;entryDx=0;entryDy=0;" edge="1" parent="1" target="GDJ8opukmi6f3HJeADg8-2">
          <mxGeometry relative="1" as="geometry">
            <mxPoint x="1320" y="90" as="sourcePoint" />
            <Array as="points">
              <mxPoint x="1320" y="150" />
              <mxPoint x="1380" y="150" />
              <mxPoint x="1380" y="30" />
              <mxPoint x="100" y="30" />
              <mxPoint x="100" y="590" />
            </Array>
          </mxGeometry>
        </mxCell>
        <mxCell id="GDJ8opukmi6f3HJeADg8-13" value="Mux&amp;nbsp;" style="strokeWidth=2;html=1;shape=mxgraph.flowchart.terminator;whiteSpace=wrap;rotation=90;" vertex="1" parent="1">
          <mxGeometry x="1260" y="130" width="120" height="45" as="geometry" />
        </mxCell>
        <mxCell id="GDJ8opukmi6f3HJeADg8-105" style="edgeStyle=orthogonalEdgeStyle;rounded=0;orthogonalLoop=1;jettySize=auto;html=1;entryX=0.286;entryY=1;entryDx=0;entryDy=0;entryPerimeter=0;exitX=0.5;exitY=0;exitDx=0;exitDy=0;exitPerimeter=0;" edge="1" parent="1">
          <mxGeometry relative="1" as="geometry">
            <mxPoint x="520" y="731.47" as="targetPoint" />
            <mxPoint x="1555.01" y="588.97" as="sourcePoint" />
            <Array as="points">
              <mxPoint x="1590" y="589" />
              <mxPoint x="1590" y="691" />
              <mxPoint x="1520" y="691" />
              <mxPoint x="1520" y="1091" />
              <mxPoint x="520" y="1091" />
            </Array>
          </mxGeometry>
        </mxCell>
        <mxCell id="GDJ8opukmi6f3HJeADg8-14" value="Mux&amp;nbsp;" style="strokeWidth=2;html=1;shape=mxgraph.flowchart.terminator;whiteSpace=wrap;rotation=90;" vertex="1" parent="1">
          <mxGeometry x="1490" y="560" width="120" height="60" as="geometry" />
        </mxCell>
        <mxCell id="GDJ8opukmi6f3HJeADg8-15" value="Mux&amp;nbsp;" style="strokeWidth=2;html=1;shape=mxgraph.flowchart.terminator;whiteSpace=wrap;rotation=90;" vertex="1" parent="1">
          <mxGeometry x="926.25" y="612.5" width="95" height="32.5" as="geometry" />
        </mxCell>
        <mxCell id="GDJ8opukmi6f3HJeADg8-20" value="" style="endArrow=classic;html=1;rounded=0;" edge="1" parent="1">
          <mxGeometry width="50" height="50" relative="1" as="geometry">
            <mxPoint x="200" y="430" as="sourcePoint" />
            <mxPoint x="1080" y="180" as="targetPoint" />
            <Array as="points">
              <mxPoint x="260" y="430" />
              <mxPoint x="260" y="180" />
              <mxPoint x="630" y="180" />
            </Array>
          </mxGeometry>
        </mxCell>
        <mxCell id="GDJ8opukmi6f3HJeADg8-21" value="" style="endArrow=classic;html=1;rounded=0;" edge="1" parent="1">
          <mxGeometry width="50" height="50" relative="1" as="geometry">
            <mxPoint x="250" y="140" as="sourcePoint" />
            <mxPoint x="360" y="140.32999999999998" as="targetPoint" />
          </mxGeometry>
        </mxCell>
        <mxCell id="GDJ8opukmi6f3HJeADg8-23" value="" style="endArrow=classic;html=1;rounded=0;entryX=0;entryY=0.25;entryDx=0;entryDy=0;entryPerimeter=0;fontColor=#2828FF;fillColor=#dae8fc;strokeColor=#6c8ebf;" edge="1" parent="1">
          <mxGeometry width="50" height="50" relative="1" as="geometry">
            <mxPoint x="735" y="255.17000000000002" as="sourcePoint" />
            <mxPoint x="1250" y="266.75" as="targetPoint" />
            <Array as="points">
              <mxPoint x="740" y="270" />
            </Array>
          </mxGeometry>
        </mxCell>
        <mxCell id="GDJ8opukmi6f3HJeADg8-25" style="edgeStyle=orthogonalEdgeStyle;rounded=0;orthogonalLoop=1;jettySize=auto;html=1;exitX=1;exitY=0.5;exitDx=0;exitDy=0;exitPerimeter=0;entryX=0.199;entryY=1.011;entryDx=0;entryDy=0;entryPerimeter=0;" edge="1" parent="1" source="GDJ8opukmi6f3HJeADg8-8" target="GDJ8opukmi6f3HJeADg8-13">
          <mxGeometry relative="1" as="geometry" />
        </mxCell>
        <mxCell id="GDJ8opukmi6f3HJeADg8-26" style="edgeStyle=orthogonalEdgeStyle;rounded=0;orthogonalLoop=1;jettySize=auto;html=1;exitX=1;exitY=0.5;exitDx=0;exitDy=0;exitPerimeter=0;entryX=0.721;entryY=0.952;entryDx=0;entryDy=0;entryPerimeter=0;" edge="1" parent="1" source="GDJ8opukmi6f3HJeADg8-9" target="GDJ8opukmi6f3HJeADg8-13">
          <mxGeometry relative="1" as="geometry" />
        </mxCell>
        <mxCell id="GDJ8opukmi6f3HJeADg8-33" value="4" style="text;html=1;align=center;verticalAlign=middle;resizable=0;points=[];autosize=1;strokeColor=none;fillColor=none;fontSize=22;" vertex="1" parent="1">
          <mxGeometry x="220" y="120" width="40" height="40" as="geometry" />
        </mxCell>
        <mxCell id="GDJ8opukmi6f3HJeADg8-35" value="&lt;font style=&quot;font-size: 16px;&quot;&gt;&lt;b&gt;1&lt;/b&gt;&lt;/font&gt;" style="text;html=1;align=center;verticalAlign=middle;resizable=0;points=[];autosize=1;strokeColor=none;fillColor=none;" vertex="1" parent="1">
          <mxGeometry x="1300" y="175" width="30" height="30" as="geometry" />
        </mxCell>
        <mxCell id="GDJ8opukmi6f3HJeADg8-36" value="&lt;font style=&quot;font-size: 16px;&quot;&gt;&lt;b&gt;0&lt;/b&gt;&lt;/font&gt;" style="text;html=1;align=center;verticalAlign=middle;resizable=0;points=[];autosize=1;strokeColor=none;fillColor=none;" vertex="1" parent="1">
          <mxGeometry x="1300" y="100" width="30" height="30" as="geometry" />
        </mxCell>
        <mxCell id="GDJ8opukmi6f3HJeADg8-37" value="&lt;font style=&quot;font-size: 16px;&quot;&gt;&lt;b&gt;1&lt;/b&gt;&lt;/font&gt;" style="text;html=1;align=center;verticalAlign=middle;resizable=0;points=[];autosize=1;strokeColor=none;fillColor=none;" vertex="1" parent="1">
          <mxGeometry x="1520" y="540" width="30" height="30" as="geometry" />
        </mxCell>
        <mxCell id="GDJ8opukmi6f3HJeADg8-38" value="&lt;font style=&quot;font-size: 16px;&quot;&gt;&lt;b&gt;0&lt;/b&gt;&lt;/font&gt;" style="text;html=1;align=center;verticalAlign=middle;resizable=0;points=[];autosize=1;strokeColor=none;fillColor=none;" vertex="1" parent="1">
          <mxGeometry x="1520" y="612.5" width="30" height="30" as="geometry" />
        </mxCell>
        <mxCell id="GDJ8opukmi6f3HJeADg8-39" value="&lt;font style=&quot;font-size: 16px;&quot;&gt;&lt;b&gt;0&lt;/b&gt;&lt;/font&gt;" style="text;html=1;align=center;verticalAlign=middle;resizable=0;points=[];autosize=1;strokeColor=none;fillColor=none;" vertex="1" parent="1">
          <mxGeometry x="950" y="582.5" width="30" height="30" as="geometry" />
        </mxCell>
        <mxCell id="GDJ8opukmi6f3HJeADg8-40" value="&lt;font style=&quot;font-size: 16px;&quot;&gt;&lt;b&gt;1&lt;/b&gt;&lt;/font&gt;" style="text;html=1;align=center;verticalAlign=middle;resizable=0;points=[];autosize=1;strokeColor=none;fillColor=none;" vertex="1" parent="1">
          <mxGeometry x="950" y="635" width="30" height="30" as="geometry" />
        </mxCell>
        <mxCell id="GDJ8opukmi6f3HJeADg8-41" value="" style="endArrow=classic;html=1;rounded=0;entryX=0.344;entryY=1.022;entryDx=0;entryDy=0;entryPerimeter=0;" edge="1" parent="1" target="GDJ8opukmi6f3HJeADg8-40">
          <mxGeometry width="50" height="50" relative="1" as="geometry">
            <mxPoint x="910" y="666" as="sourcePoint" />
            <mxPoint x="970" y="620" as="targetPoint" />
          </mxGeometry>
        </mxCell>
        <mxCell id="GDJ8opukmi6f3HJeADg8-42" style="edgeStyle=orthogonalEdgeStyle;rounded=0;orthogonalLoop=1;jettySize=auto;html=1;entryX=0.083;entryY=0.858;entryDx=0;entryDy=0;entryPerimeter=0;" edge="1" parent="1" source="GDJ8opukmi6f3HJeADg8-15" target="GDJ8opukmi6f3HJeADg8-5">
          <mxGeometry relative="1" as="geometry" />
        </mxCell>
        <mxCell id="GDJ8opukmi6f3HJeADg8-44" value="read data 1" style="text;html=1;align=center;verticalAlign=middle;resizable=0;points=[];autosize=1;strokeColor=none;fillColor=none;" vertex="1" parent="1">
          <mxGeometry x="800" y="510" width="80" height="30" as="geometry" />
        </mxCell>
        <mxCell id="GDJ8opukmi6f3HJeADg8-45" value="read data 2" style="text;html=1;align=center;verticalAlign=middle;resizable=0;points=[];autosize=1;strokeColor=none;fillColor=none;fontSize=12;" vertex="1" parent="1">
          <mxGeometry x="795" y="605" width="80" height="30" as="geometry" />
        </mxCell>
        <mxCell id="GDJ8opukmi6f3HJeADg8-46" value="read register 2" style="text;html=1;align=center;verticalAlign=middle;resizable=0;points=[];autosize=1;strokeColor=none;fillColor=none;" vertex="1" parent="1">
          <mxGeometry x="700" y="540" width="100" height="30" as="geometry" />
        </mxCell>
        <mxCell id="GDJ8opukmi6f3HJeADg8-47" value="read register 1" style="text;html=1;align=center;verticalAlign=middle;resizable=0;points=[];autosize=1;strokeColor=none;fillColor=none;" vertex="1" parent="1">
          <mxGeometry x="700" y="510" width="100" height="30" as="geometry" />
        </mxCell>
        <mxCell id="GDJ8opukmi6f3HJeADg8-48" value="write register" style="text;html=1;align=center;verticalAlign=middle;resizable=0;points=[];autosize=1;strokeColor=none;fillColor=none;" vertex="1" parent="1">
          <mxGeometry x="705" y="600" width="90" height="30" as="geometry" />
        </mxCell>
        <mxCell id="GDJ8opukmi6f3HJeADg8-49" value="write data" style="text;html=1;align=center;verticalAlign=middle;resizable=0;points=[];autosize=1;strokeColor=none;fillColor=none;" vertex="1" parent="1">
          <mxGeometry x="700" y="635" width="80" height="30" as="geometry" />
        </mxCell>
        <mxCell id="GDJ8opukmi6f3HJeADg8-50" value="" style="endArrow=classic;html=1;rounded=0;" edge="1" parent="1">
          <mxGeometry width="50" height="50" relative="1" as="geometry">
            <mxPoint x="875" y="530" as="sourcePoint" />
            <mxPoint x="1050" y="567" as="targetPoint" />
            <Array as="points">
              <mxPoint x="970" y="530" />
              <mxPoint x="970" y="567" />
            </Array>
          </mxGeometry>
        </mxCell>
        <mxCell id="GDJ8opukmi6f3HJeADg8-51" style="edgeStyle=orthogonalEdgeStyle;rounded=0;orthogonalLoop=1;jettySize=auto;html=1;entryX=0.167;entryY=0.639;entryDx=0;entryDy=0;entryPerimeter=0;" edge="1" parent="1" source="GDJ8opukmi6f3HJeADg8-45" target="GDJ8opukmi6f3HJeADg8-39">
          <mxGeometry relative="1" as="geometry">
            <mxPoint x="940" y="600" as="targetPoint" />
          </mxGeometry>
        </mxCell>
        <mxCell id="GDJ8opukmi6f3HJeADg8-54" value="write data" style="text;html=1;align=center;verticalAlign=middle;resizable=0;points=[];autosize=1;strokeColor=none;fillColor=none;fontSize=12;" vertex="1" parent="1">
          <mxGeometry x="1290" y="665" width="80" height="30" as="geometry" />
        </mxCell>
        <mxCell id="GDJ8opukmi6f3HJeADg8-55" value="" style="endArrow=classic;html=1;rounded=0;entryX=0.007;entryY=0.644;entryDx=0;entryDy=0;entryPerimeter=0;" edge="1" parent="1" target="GDJ8opukmi6f3HJeADg8-54">
          <mxGeometry width="50" height="50" relative="1" as="geometry">
            <mxPoint x="885" y="620" as="sourcePoint" />
            <mxPoint x="1285" y="650" as="targetPoint" />
            <Array as="points">
              <mxPoint x="885" y="680" />
            </Array>
          </mxGeometry>
        </mxCell>
        <mxCell id="GDJ8opukmi6f3HJeADg8-56" value="address" style="text;html=1;align=center;verticalAlign=middle;resizable=0;points=[];autosize=1;strokeColor=none;fillColor=none;fontSize=12;" vertex="1" parent="1">
          <mxGeometry x="1285" y="542.5" width="70" height="30" as="geometry" />
        </mxCell>
        <mxCell id="GDJ8opukmi6f3HJeADg8-57" style="edgeStyle=orthogonalEdgeStyle;rounded=0;orthogonalLoop=1;jettySize=auto;html=1;exitX=1;exitY=0.5;exitDx=0;exitDy=0;exitPerimeter=0;entryX=0.048;entryY=0.506;entryDx=0;entryDy=0;entryPerimeter=0;" edge="1" parent="1" source="GDJ8opukmi6f3HJeADg8-5" target="GDJ8opukmi6f3HJeADg8-56">
          <mxGeometry relative="1" as="geometry" />
        </mxCell>
        <mxCell id="GDJ8opukmi6f3HJeADg8-58" value="read Data" style="text;html=1;align=center;verticalAlign=middle;resizable=0;points=[];autosize=1;strokeColor=none;fillColor=none;fontSize=12;" vertex="1" parent="1">
          <mxGeometry x="1375" y="542.5" width="80" height="30" as="geometry" />
        </mxCell>
        <mxCell id="GDJ8opukmi6f3HJeADg8-59" style="edgeStyle=orthogonalEdgeStyle;rounded=0;orthogonalLoop=1;jettySize=auto;html=1;entryX=0.144;entryY=0.589;entryDx=0;entryDy=0;entryPerimeter=0;" edge="1" parent="1" source="GDJ8opukmi6f3HJeADg8-58" target="GDJ8opukmi6f3HJeADg8-37">
          <mxGeometry relative="1" as="geometry" />
        </mxCell>
        <mxCell id="GDJ8opukmi6f3HJeADg8-60" value="" style="endArrow=classic;html=1;rounded=0;entryX=0.011;entryY=0.35;entryDx=0;entryDy=0;entryPerimeter=0;" edge="1" parent="1" target="GDJ8opukmi6f3HJeADg8-38">
          <mxGeometry width="50" height="50" relative="1" as="geometry">
            <mxPoint x="1210" y="590" as="sourcePoint" />
            <mxPoint x="1500" y="625" as="targetPoint" />
            <Array as="points">
              <mxPoint x="1210" y="650" />
              <mxPoint x="1210" y="770" />
              <mxPoint x="1490" y="775" />
              <mxPoint x="1490" y="623" />
            </Array>
          </mxGeometry>
        </mxCell>
        <mxCell id="GDJ8opukmi6f3HJeADg8-62" value="read address" style="text;html=1;align=center;verticalAlign=middle;resizable=0;points=[];autosize=1;strokeColor=none;fillColor=none;" vertex="1" parent="1">
          <mxGeometry x="375" y="520" width="90" height="30" as="geometry" />
        </mxCell>
        <mxCell id="GDJ8opukmi6f3HJeADg8-64" style="edgeStyle=orthogonalEdgeStyle;rounded=0;orthogonalLoop=1;jettySize=auto;html=1;" edge="1" parent="1" source="GDJ8opukmi6f3HJeADg8-63">
          <mxGeometry relative="1" as="geometry">
            <mxPoint x="710" y="523" as="targetPoint" />
            <Array as="points">
              <mxPoint x="622" y="630" />
              <mxPoint x="622" y="523" />
            </Array>
          </mxGeometry>
        </mxCell>
        <mxCell id="GDJ8opukmi6f3HJeADg8-63" value="instructions [31:0]" style="text;html=1;align=center;verticalAlign=middle;resizable=0;points=[];autosize=1;strokeColor=none;fillColor=none;" vertex="1" parent="1">
          <mxGeometry x="375" y="615" width="120" height="30" as="geometry" />
        </mxCell>
        <mxCell id="GDJ8opukmi6f3HJeADg8-65" value="" style="endArrow=classic;html=1;rounded=0;entryX=0.1;entryY=0.667;entryDx=0;entryDy=0;entryPerimeter=0;" edge="1" parent="1" target="GDJ8opukmi6f3HJeADg8-46">
          <mxGeometry width="50" height="50" relative="1" as="geometry">
            <mxPoint x="620" y="560" as="sourcePoint" />
            <mxPoint x="670" y="510" as="targetPoint" />
          </mxGeometry>
        </mxCell>
        <mxCell id="GDJ8opukmi6f3HJeADg8-66" value="" style="endArrow=classic;html=1;rounded=0;entryX=0.1;entryY=0.667;entryDx=0;entryDy=0;entryPerimeter=0;" edge="1" parent="1">
          <mxGeometry width="50" height="50" relative="1" as="geometry">
            <mxPoint x="620" y="612.5" as="sourcePoint" />
            <mxPoint x="710" y="612.5" as="targetPoint" />
          </mxGeometry>
        </mxCell>
        <mxCell id="GDJ8opukmi6f3HJeADg8-67" value="" style="endArrow=classic;html=1;rounded=0;entryX=0;entryY=0.5;entryDx=0;entryDy=0;" edge="1" parent="1" target="GDJ8opukmi6f3HJeADg8-10">
          <mxGeometry width="50" height="50" relative="1" as="geometry">
            <mxPoint x="620" y="630" as="sourcePoint" />
            <mxPoint x="860" y="490" as="targetPoint" />
            <Array as="points">
              <mxPoint x="620" y="840" />
            </Array>
          </mxGeometry>
        </mxCell>
        <mxCell id="GDJ8opukmi6f3HJeADg8-98" style="edgeStyle=orthogonalEdgeStyle;rounded=0;orthogonalLoop=1;jettySize=auto;html=1;exitX=1;exitY=0.5;exitDx=0;exitDy=0;entryX=0.5;entryY=0;entryDx=0;entryDy=0;fontColor=#2828FF;fillColor=#dae8fc;strokeColor=#6c8ebf;" edge="1" parent="1" source="GDJ8opukmi6f3HJeADg8-68" target="GDJ8opukmi6f3HJeADg8-4">
          <mxGeometry relative="1" as="geometry">
            <Array as="points">
              <mxPoint x="695" y="390" />
              <mxPoint x="790" y="390" />
            </Array>
          </mxGeometry>
        </mxCell>
        <mxCell id="GDJ8opukmi6f3HJeADg8-68" value="" style="ellipse;whiteSpace=wrap;html=1;rotation=90;fillColor=#dae8fc;strokeColor=#6c8ebf;fontColor=#2845FF;" vertex="1" parent="1">
          <mxGeometry x="620" y="250" width="150" height="110" as="geometry" />
        </mxCell>
        <mxCell id="GDJ8opukmi6f3HJeADg8-69" value="CONTROL" style="text;html=1;align=center;verticalAlign=middle;resizable=0;points=[];autosize=1;strokeColor=none;fillColor=none;fontColor=#402BFF;fontStyle=1" vertex="1" parent="1">
          <mxGeometry x="655" y="290" width="80" height="30" as="geometry" />
        </mxCell>
        <mxCell id="GDJ8opukmi6f3HJeADg8-70" value="" style="endArrow=classic;html=1;rounded=0;entryX=0.5;entryY=1;entryDx=0;entryDy=0;" edge="1" parent="1">
          <mxGeometry width="50" height="50" relative="1" as="geometry">
            <mxPoint x="620" y="525" as="sourcePoint" />
            <mxPoint x="640" y="300" as="targetPoint" />
            <Array as="points">
              <mxPoint x="620" y="300" />
            </Array>
          </mxGeometry>
        </mxCell>
        <mxCell id="GDJ8opukmi6f3HJeADg8-71" value="instruction [6:0]" style="text;html=1;align=center;verticalAlign=middle;resizable=0;points=[];autosize=1;strokeColor=none;fillColor=none;" vertex="1" parent="1">
          <mxGeometry x="555" y="272" width="100" height="30" as="geometry" />
        </mxCell>
        <mxCell id="GDJ8opukmi6f3HJeADg8-72" value="instruction [19:15]" style="text;html=1;align=center;verticalAlign=middle;resizable=0;points=[];autosize=1;strokeColor=none;fillColor=none;" vertex="1" parent="1">
          <mxGeometry x="590" y="490" width="120" height="30" as="geometry" />
        </mxCell>
        <mxCell id="GDJ8opukmi6f3HJeADg8-73" value="instruction [24:20]" style="text;html=1;align=center;verticalAlign=middle;resizable=0;points=[];autosize=1;strokeColor=none;fillColor=none;" vertex="1" parent="1">
          <mxGeometry x="590" y="530" width="120" height="30" as="geometry" />
        </mxCell>
        <mxCell id="GDJ8opukmi6f3HJeADg8-74" value="instruction [11:7]" style="text;html=1;align=center;verticalAlign=middle;resizable=0;points=[];autosize=1;strokeColor=none;fillColor=none;" vertex="1" parent="1">
          <mxGeometry x="600" y="582.5" width="110" height="30" as="geometry" />
        </mxCell>
        <mxCell id="GDJ8opukmi6f3HJeADg8-75" value="instruction [31:0]" style="text;html=1;align=center;verticalAlign=middle;resizable=0;points=[];autosize=1;strokeColor=none;fillColor=none;" vertex="1" parent="1">
          <mxGeometry x="610" y="810" width="110" height="30" as="geometry" />
        </mxCell>
        <mxCell id="GDJ8opukmi6f3HJeADg8-78" value="Zero" style="text;html=1;align=center;verticalAlign=middle;resizable=0;points=[];autosize=1;strokeColor=none;fillColor=none;fontColor=light-dark(#1e3edc, #ededed);fontStyle=1" vertex="1" parent="1">
          <mxGeometry x="1100" y="542.5" width="50" height="30" as="geometry" />
        </mxCell>
        <mxCell id="GDJ8opukmi6f3HJeADg8-79" style="edgeStyle=orthogonalEdgeStyle;rounded=0;orthogonalLoop=1;jettySize=auto;html=1;entryX=0;entryY=1;entryDx=0;entryDy=0;fontColor=#2828FF;fillColor=#dae8fc;strokeColor=#6c8ebf;" edge="1" parent="1" source="GDJ8opukmi6f3HJeADg8-78" target="GDJ8opukmi6f3HJeADg8-133">
          <mxGeometry relative="1" as="geometry">
            <mxPoint x="1250" y="302.25" as="targetPoint" />
            <Array as="points">
              <mxPoint x="1200" y="558" />
              <mxPoint x="1200" y="301" />
            </Array>
          </mxGeometry>
        </mxCell>
        <mxCell id="GDJ8opukmi6f3HJeADg8-80" style="edgeStyle=orthogonalEdgeStyle;rounded=0;orthogonalLoop=1;jettySize=auto;html=1;exitX=1;exitY=0.5;exitDx=0;exitDy=0;exitPerimeter=0;entryX=1;entryY=0.5;entryDx=0;entryDy=0;entryPerimeter=0;fontColor=#2828FF;fillColor=#dae8fc;strokeColor=#6c8ebf;" edge="1" parent="1" target="GDJ8opukmi6f3HJeADg8-13">
          <mxGeometry relative="1" as="geometry">
            <mxPoint x="1320" y="284.5" as="sourcePoint" />
          </mxGeometry>
        </mxCell>
        <mxCell id="GDJ8opukmi6f3HJeADg8-81" value="Branch" style="text;html=1;align=center;verticalAlign=middle;resizable=0;points=[];autosize=1;strokeColor=none;fillColor=none;fontStyle=1;fontColor=#2323FF;" vertex="1" parent="1">
          <mxGeometry x="738" y="249" width="60" height="30" as="geometry" />
        </mxCell>
        <mxCell id="GDJ8opukmi6f3HJeADg8-82" value="MemRead" style="text;html=1;align=center;verticalAlign=middle;resizable=0;points=[];autosize=1;strokeColor=none;fillColor=none;fontStyle=1;fontColor=#2323FF;" vertex="1" parent="1">
          <mxGeometry x="739" y="272" width="80" height="30" as="geometry" />
        </mxCell>
        <mxCell id="GDJ8opukmi6f3HJeADg8-83" value="" style="endArrow=classic;html=1;rounded=0;entryX=0;entryY=0.5;entryDx=0;entryDy=0;entryPerimeter=0;exitX=0.5;exitY=0;exitDx=0;exitDy=0;fontColor=#2828FF;fillColor=#dae8fc;strokeColor=#6c8ebf;" edge="1" parent="1" target="GDJ8opukmi6f3HJeADg8-14">
          <mxGeometry width="50" height="50" relative="1" as="geometry">
            <mxPoint x="750" y="293" as="sourcePoint" />
            <mxPoint x="1260" y="292.83" as="targetPoint" />
            <Array as="points">
              <mxPoint x="765" y="292.83" />
              <mxPoint x="1130" y="290" />
              <mxPoint x="1130" y="330" />
              <mxPoint x="1550" y="330" />
            </Array>
          </mxGeometry>
        </mxCell>
        <mxCell id="GDJ8opukmi6f3HJeADg8-84" value="MemtoReg" style="text;html=1;align=center;verticalAlign=middle;resizable=0;points=[];autosize=1;strokeColor=none;fillColor=none;fontStyle=1;fontColor=#2323FF;" vertex="1" parent="1">
          <mxGeometry x="740" y="292" width="80" height="30" as="geometry" />
        </mxCell>
        <mxCell id="GDJ8opukmi6f3HJeADg8-85" value="" style="endArrow=classic;html=1;rounded=0;exitX=0.5;exitY=0;exitDx=0;exitDy=0;fontColor=#2828FF;fillColor=#dae8fc;strokeColor=#6c8ebf;" edge="1" parent="1">
          <mxGeometry width="50" height="50" relative="1" as="geometry">
            <mxPoint x="751" y="313" as="sourcePoint" />
            <mxPoint x="1370" y="720" as="targetPoint" />
            <Array as="points">
              <mxPoint x="766" y="312.83" />
              <mxPoint x="1100" y="310" />
              <mxPoint x="1100" y="350" />
              <mxPoint x="1551" y="350" />
              <mxPoint x="1610" y="350" />
              <mxPoint x="1610" y="820" />
              <mxPoint x="1370" y="820" />
            </Array>
          </mxGeometry>
        </mxCell>
        <mxCell id="GDJ8opukmi6f3HJeADg8-87" value="" style="ellipse;whiteSpace=wrap;html=1;rotation=90;fillColor=#dae8fc;strokeColor=#6c8ebf;fontColor=#2845FF;" vertex="1" parent="1">
          <mxGeometry x="1030" y="780" width="150" height="90" as="geometry" />
        </mxCell>
        <mxCell id="GDJ8opukmi6f3HJeADg8-86" value="ALU CONTROL" style="text;html=1;align=center;verticalAlign=middle;resizable=0;points=[];autosize=1;strokeColor=none;fillColor=none;fontColor=#402BFF;fontSize=11;fontStyle=1" vertex="1" parent="1">
          <mxGeometry x="1055" y="810" width="100" height="30" as="geometry" />
        </mxCell>
        <mxCell id="GDJ8opukmi6f3HJeADg8-91" value="ALUOp" style="text;html=1;align=center;verticalAlign=middle;resizable=0;points=[];autosize=1;strokeColor=none;fillColor=none;fontStyle=1;fontColor=#2323FF;" vertex="1" parent="1">
          <mxGeometry x="750" y="309" width="60" height="30" as="geometry" />
        </mxCell>
        <mxCell id="GDJ8opukmi6f3HJeADg8-92" value="" style="endArrow=classic;html=1;rounded=0;entryX=1;entryY=0.5;entryDx=0;entryDy=0;fillColor=#dae8fc;strokeColor=#6c8ebf;strokeWidth=3;" edge="1" parent="1" target="GDJ8opukmi6f3HJeADg8-87">
          <mxGeometry width="50" height="50" relative="1" as="geometry">
            <mxPoint x="746" y="333" as="sourcePoint" />
            <mxPoint x="1050" y="850" as="targetPoint" />
            <Array as="points">
              <mxPoint x="761" y="332.83" />
              <mxPoint x="930" y="333" />
              <mxPoint x="930" y="900" />
            </Array>
          </mxGeometry>
        </mxCell>
        <mxCell id="GDJ8opukmi6f3HJeADg8-93" value="MemWrite" style="text;html=1;align=center;verticalAlign=middle;resizable=0;points=[];autosize=1;strokeColor=none;fillColor=none;fontStyle=1;fontColor=#2323FF;" vertex="1" parent="1">
          <mxGeometry x="738" y="330" width="80" height="30" as="geometry" />
        </mxCell>
        <mxCell id="GDJ8opukmi6f3HJeADg8-94" value="" style="endArrow=classic;html=1;rounded=0;entryX=0.5;entryY=0;entryDx=0;entryDy=0;fontColor=#2828FF;fillColor=#dae8fc;strokeColor=#6c8ebf;" edge="1" parent="1" target="GDJ8opukmi6f3HJeADg8-6">
          <mxGeometry width="50" height="50" relative="1" as="geometry">
            <mxPoint x="735" y="351" as="sourcePoint" />
            <mxPoint x="1245" y="351" as="targetPoint" />
            <Array as="points">
              <mxPoint x="750" y="351" />
              <mxPoint x="880" y="350" />
              <mxPoint x="880" y="440" />
              <mxPoint x="1370" y="440" />
            </Array>
          </mxGeometry>
        </mxCell>
        <mxCell id="GDJ8opukmi6f3HJeADg8-96" value="ALUSrc" style="text;html=1;align=center;verticalAlign=middle;resizable=0;points=[];autosize=1;strokeColor=none;fillColor=none;fontStyle=1;fontColor=#2323FF;" vertex="1" parent="1">
          <mxGeometry x="738" y="347" width="60" height="30" as="geometry" />
        </mxCell>
        <mxCell id="GDJ8opukmi6f3HJeADg8-97" value="" style="endArrow=classic;html=1;rounded=0;entryX=0.833;entryY=-0.117;entryDx=0;entryDy=0;entryPerimeter=0;fontColor=#2828FF;fillColor=#dae8fc;strokeColor=#6c8ebf;" edge="1" parent="1">
          <mxGeometry width="50" height="50" relative="1" as="geometry">
            <mxPoint x="735" y="356.68" as="sourcePoint" />
            <mxPoint x="974.9899999999998" y="582.5" as="targetPoint" />
            <Array as="points">
              <mxPoint x="740" y="371.51" />
              <mxPoint x="860" y="373.51" />
              <mxPoint x="860" y="453.51" />
              <mxPoint x="975" y="453.51" />
            </Array>
          </mxGeometry>
        </mxCell>
        <mxCell id="GDJ8opukmi6f3HJeADg8-99" value="RegWrite" style="text;html=1;align=center;verticalAlign=middle;resizable=0;points=[];autosize=1;strokeColor=none;fillColor=none;fontStyle=1;fontColor=#2323FF;" vertex="1" parent="1">
          <mxGeometry x="701" y="368" width="70" height="30" as="geometry" />
        </mxCell>
        <mxCell id="GDJ8opukmi6f3HJeADg8-102" style="edgeStyle=orthogonalEdgeStyle;rounded=0;orthogonalLoop=1;jettySize=auto;html=1;exitX=0;exitY=0.5;exitDx=0;exitDy=0;entryX=0.531;entryY=0.965;entryDx=0;entryDy=0;entryPerimeter=0;" edge="1" parent="1" source="GDJ8opukmi6f3HJeADg8-87" target="GDJ8opukmi6f3HJeADg8-5">
          <mxGeometry relative="1" as="geometry" />
        </mxCell>
        <mxCell id="GDJ8opukmi6f3HJeADg8-103" value="" style="endArrow=classic;html=1;rounded=0;entryX=0.053;entryY=1.056;entryDx=0;entryDy=0;entryPerimeter=0;" edge="1" parent="1" target="GDJ8opukmi6f3HJeADg8-86">
          <mxGeometry width="50" height="50" relative="1" as="geometry">
            <mxPoint x="660" y="840" as="sourcePoint" />
            <mxPoint x="710" y="790" as="targetPoint" />
            <Array as="points">
              <mxPoint x="660" y="930" />
              <mxPoint x="980" y="930" />
              <mxPoint x="980" y="842" />
            </Array>
          </mxGeometry>
        </mxCell>
        <mxCell id="GDJ8opukmi6f3HJeADg8-104" value="Instruction [30,14-12]" style="text;html=1;align=center;verticalAlign=middle;resizable=0;points=[];autosize=1;strokeColor=none;fillColor=none;" vertex="1" parent="1">
          <mxGeometry x="735" y="900" width="140" height="30" as="geometry" />
        </mxCell>
        <mxCell id="GDJ8opukmi6f3HJeADg8-108" value="" style="endArrow=classic;html=1;rounded=0;entryX=0.229;entryY=0.975;entryDx=0;entryDy=0;entryPerimeter=0;fillColor=#dae8fc;strokeColor=#6c8ebf;" edge="1" parent="1" target="GDJ8opukmi6f3HJeADg8-133">
          <mxGeometry width="50" height="50" relative="1" as="geometry">
            <mxPoint x="1050" y="542.5" as="sourcePoint" />
            <mxPoint x="1050" y="500" as="targetPoint" />
            <Array as="points">
              <mxPoint x="1050" y="430" />
              <mxPoint x="1268" y="430" />
            </Array>
          </mxGeometry>
        </mxCell>
        <mxCell id="GDJ8opukmi6f3HJeADg8-110" value="" style="endArrow=classic;html=1;rounded=0;entryX=0;entryY=0.5;entryDx=0;entryDy=0;entryPerimeter=0;fillColor=#dae8fc;strokeColor=#6c8ebf;" edge="1" parent="1">
          <mxGeometry width="50" height="50" relative="1" as="geometry">
            <mxPoint x="1113" y="543.5" as="sourcePoint" />
            <mxPoint x="1250" y="284.5" as="targetPoint" />
            <Array as="points">
              <mxPoint x="1113" y="285" />
            </Array>
          </mxGeometry>
        </mxCell>
        <mxCell id="GDJ8opukmi6f3HJeADg8-112" value="Neg" style="text;html=1;align=center;verticalAlign=middle;resizable=0;points=[];autosize=1;strokeColor=none;fillColor=none;fontColor=#351EFF;" vertex="1" parent="1">
          <mxGeometry x="1021.25" y="510" width="50" height="30" as="geometry" />
        </mxCell>
        <mxCell id="GDJ8opukmi6f3HJeADg8-135" style="edgeStyle=orthogonalEdgeStyle;rounded=0;orthogonalLoop=1;jettySize=auto;html=1;entryX=0;entryY=0;entryDx=0;entryDy=0;fillColor=#dae8fc;strokeColor=#6c8ebf;exitX=0;exitY=0;exitDx=55;exitDy=0;exitPerimeter=0;" edge="1" parent="1" source="GDJ8opukmi6f3HJeADg8-5" target="GDJ8opukmi6f3HJeADg8-133">
          <mxGeometry relative="1" as="geometry">
            <mxPoint x="1080" y="430" as="targetPoint" />
            <Array as="points">
              <mxPoint x="1080" y="542" />
              <mxPoint x="1080" y="260" />
              <mxPoint x="1240" y="260" />
              <mxPoint x="1240" y="245" />
            </Array>
          </mxGeometry>
        </mxCell>
        <mxCell id="GDJ8opukmi6f3HJeADg8-115" value="Carry" style="text;html=1;align=center;verticalAlign=middle;resizable=0;points=[];autosize=1;strokeColor=none;fillColor=none;fontColor=#2B5CFF;" vertex="1" parent="1">
          <mxGeometry x="1090" y="510" width="50" height="30" as="geometry" />
        </mxCell>
        <mxCell id="GDJ8opukmi6f3HJeADg8-118" style="edgeStyle=orthogonalEdgeStyle;rounded=0;orthogonalLoop=1;jettySize=auto;html=1;exitX=0;exitY=0.5;exitDx=0;exitDy=0;exitPerimeter=0;fontColor=none;noLabel=1;fillColor=#dae8fc;strokeColor=#6c8ebf;" edge="1" parent="1" source="GDJ8opukmi6f3HJeADg8-116">
          <mxGeometry relative="1" as="geometry">
            <mxPoint x="410" y="717.6666666666667" as="targetPoint" />
          </mxGeometry>
        </mxCell>
        <mxCell id="GDJ8opukmi6f3HJeADg8-116" value="Mux&amp;nbsp;" style="strokeWidth=2;html=1;shape=mxgraph.flowchart.terminator;whiteSpace=wrap;rotation=0;" vertex="1" parent="1">
          <mxGeometry x="465" y="695" width="140" height="45" as="geometry" />
        </mxCell>
        <mxCell id="GDJ8opukmi6f3HJeADg8-117" style="edgeStyle=orthogonalEdgeStyle;rounded=0;orthogonalLoop=1;jettySize=auto;html=1;entryX=0.071;entryY=0.444;entryDx=0;entryDy=0;entryPerimeter=0;" edge="1" parent="1" source="GDJ8opukmi6f3HJeADg8-116" target="GDJ8opukmi6f3HJeADg8-49">
          <mxGeometry relative="1" as="geometry">
            <Array as="points">
              <mxPoint x="535" y="680" />
              <mxPoint x="680" y="680" />
              <mxPoint x="680" y="648" />
            </Array>
          </mxGeometry>
        </mxCell>
        <mxCell id="GDJ8opukmi6f3HJeADg8-119" value="WriteData" style="text;html=1;align=center;verticalAlign=middle;resizable=0;points=[];autosize=1;strokeColor=none;fillColor=none;fontColor=#2121FF;" vertex="1" parent="1">
          <mxGeometry x="340" y="702.5" width="80" height="30" as="geometry" />
        </mxCell>
        <mxCell id="GDJ8opukmi6f3HJeADg8-121" value="Shift Left 12" style="ellipse;whiteSpace=wrap;html=1;" vertex="1" parent="1">
          <mxGeometry x="840" y="960" width="110" height="80" as="geometry" />
        </mxCell>
        <mxCell id="GDJ8opukmi6f3HJeADg8-122" style="edgeStyle=orthogonalEdgeStyle;rounded=0;orthogonalLoop=1;jettySize=auto;html=1;entryX=0.5;entryY=1;entryDx=0;entryDy=0;entryPerimeter=0;" edge="1" parent="1" source="GDJ8opukmi6f3HJeADg8-121" target="GDJ8opukmi6f3HJeADg8-116">
          <mxGeometry relative="1" as="geometry" />
        </mxCell>
        <mxCell id="GDJ8opukmi6f3HJeADg8-123" value="LUI" style="text;html=1;align=center;verticalAlign=middle;resizable=0;points=[];autosize=1;strokeColor=none;fillColor=none;fontColor=#FF4F23;fontStyle=1;fontSize=13;" vertex="1" parent="1">
          <mxGeometry x="660" y="978" width="40" height="30" as="geometry" />
        </mxCell>
        <mxCell id="GDJ8opukmi6f3HJeADg8-124" value="" style="endArrow=classic;html=1;rounded=0;entryX=0.29;entryY=1.007;entryDx=0;entryDy=0;entryPerimeter=0;" edge="1" parent="1" target="GDJ8opukmi6f3HJeADg8-116">
          <mxGeometry width="50" height="50" relative="1" as="geometry">
            <mxPoint x="510" y="120" as="sourcePoint" />
            <mxPoint x="510" y="20" as="targetPoint" />
            <Array as="points">
              <mxPoint x="510" y="360" />
              <mxPoint x="280" y="360" />
              <mxPoint x="280" y="1010" />
              <mxPoint x="506" y="1010" />
            </Array>
          </mxGeometry>
        </mxCell>
        <mxCell id="GDJ8opukmi6f3HJeADg8-125" value="JAL/JALR" style="text;html=1;align=center;verticalAlign=middle;resizable=0;points=[];autosize=1;strokeColor=none;fillColor=none;fontColor=light-dark(#e40707, #ededed);fontStyle=1;fontSize=13;" vertex="1" parent="1">
          <mxGeometry x="340" y="328" width="80" height="30" as="geometry" />
        </mxCell>
        <mxCell id="GDJ8opukmi6f3HJeADg8-126" value="" style="endArrow=classic;html=1;rounded=0;entryX=0.681;entryY=1.096;entryDx=0;entryDy=0;entryPerimeter=0;" edge="1" parent="1" target="GDJ8opukmi6f3HJeADg8-116">
          <mxGeometry width="50" height="50" relative="1" as="geometry">
            <mxPoint x="1250" y="180" as="sourcePoint" />
            <mxPoint x="1300" y="130" as="targetPoint" />
            <Array as="points">
              <mxPoint x="1250" y="230" />
              <mxPoint x="1360" y="230" />
              <mxPoint x="1360" y="290" />
              <mxPoint x="1630" y="290" />
              <mxPoint x="1630" y="1150" />
              <mxPoint x="1100" y="1150" />
              <mxPoint x="560" y="1150" />
            </Array>
          </mxGeometry>
        </mxCell>
        <mxCell id="GDJ8opukmi6f3HJeADg8-127" value="AUIPC" style="text;html=1;align=center;verticalAlign=middle;resizable=0;points=[];autosize=1;strokeColor=none;fillColor=none;fontStyle=1;fontSize=13;fontColor=light-dark(#fb0404, #ededed);" vertex="1" parent="1">
          <mxGeometry x="1440" y="258" width="60" height="30" as="geometry" />
        </mxCell>
        <mxCell id="GDJ8opukmi6f3HJeADg8-133" value="Branch Control" style="ellipse;whiteSpace=wrap;html=1;aspect=fixed;fillColor=#dae8fc;strokeColor=#6c8ebf;" vertex="1" parent="1">
          <mxGeometry x="1250" y="233" width="80" height="80" as="geometry" />
        </mxCell>
        <mxCell id="GDJ8opukmi6f3HJeADg8-131" value="" style="endArrow=classic;html=1;rounded=0;entryX=0.5;entryY=1;entryDx=0;entryDy=0;entryPerimeter=0;" edge="1" parent="1" source="GDJ8opukmi6f3HJeADg8-132" target="GDJ8opukmi6f3HJeADg8-13">
          <mxGeometry width="50" height="50" relative="1" as="geometry">
            <mxPoint x="1230" y="560" as="sourcePoint" />
            <mxPoint x="1280" y="510" as="targetPoint" />
            <Array as="points">
              <mxPoint x="1220" y="153" />
            </Array>
          </mxGeometry>
        </mxCell>
        <mxCell id="GDJ8opukmi6f3HJeADg8-114" value="OvFlow" style="text;html=1;align=center;verticalAlign=middle;resizable=0;points=[];autosize=1;strokeColor=none;fillColor=none;fontColor=#2B32FF;" vertex="1" parent="1">
          <mxGeometry x="1055" y="490" width="60" height="30" as="geometry" />
        </mxCell>
        <mxCell id="GDJ8opukmi6f3HJeADg8-141" value="" style="endArrow=classic;html=1;rounded=0;entryX=0.5;entryY=1;entryDx=0;entryDy=0;entryPerimeter=0;" edge="1" parent="1" target="GDJ8opukmi6f3HJeADg8-132">
          <mxGeometry width="50" height="50" relative="1" as="geometry">
            <mxPoint x="1230" y="560" as="sourcePoint" />
            <mxPoint x="1298" y="153" as="targetPoint" />
            <Array as="points">
              <mxPoint x="1220" y="530" />
            </Array>
          </mxGeometry>
        </mxCell>
        <mxCell id="GDJ8opukmi6f3HJeADg8-132" value="JALR" style="text;html=1;align=center;verticalAlign=middle;resizable=0;points=[];autosize=1;strokeColor=none;fillColor=none;fontStyle=1;fontColor=#FF3314;fontSize=13;" vertex="1" parent="1">
          <mxGeometry x="1190" y="500" width="60" height="30" as="geometry" />
        </mxCell>
        <mxCell id="GDJ8opukmi6f3HJeADg8-142" value="Mux&amp;nbsp;" style="strokeWidth=2;html=1;shape=mxgraph.flowchart.terminator;whiteSpace=wrap;rotation=90;" vertex="1" parent="1">
          <mxGeometry x="995" y="235" width="60" height="15" as="geometry" />
        </mxCell>
        <mxCell id="GDJ8opukmi6f3HJeADg8-144" style="edgeStyle=orthogonalEdgeStyle;rounded=0;orthogonalLoop=1;jettySize=auto;html=1;entryX=0.071;entryY=0.88;entryDx=0;entryDy=0;entryPerimeter=0;" edge="1" parent="1" source="GDJ8opukmi6f3HJeADg8-142" target="GDJ8opukmi6f3HJeADg8-9">
          <mxGeometry relative="1" as="geometry">
            <mxPoint x="1060" y="238" as="targetPoint" />
          </mxGeometry>
        </mxCell>
        <mxCell id="GDJ8opukmi6f3HJeADg8-145" style="edgeStyle=orthogonalEdgeStyle;rounded=0;orthogonalLoop=1;jettySize=auto;html=1;exitX=0.5;exitY=0;exitDx=0;exitDy=0;entryX=0.5;entryY=1;entryDx=0;entryDy=0;entryPerimeter=0;" edge="1" parent="1" source="GDJ8opukmi6f3HJeADg8-11" target="GDJ8opukmi6f3HJeADg8-142">
          <mxGeometry relative="1" as="geometry" />
        </mxCell>
        <mxCell id="GDJ8opukmi6f3HJeADg8-148" value="" style="endArrow=classic;html=1;rounded=0;entryX=0.11;entryY=0.89;entryDx=0;entryDy=0;entryPerimeter=0;" edge="1" parent="1">
          <mxGeometry width="50" height="50" relative="1" as="geometry">
            <mxPoint x="536" y="870" as="sourcePoint" />
            <mxPoint x="1015.1499999999996" y="219.09999999999968" as="targetPoint" />
            <Array as="points">
              <mxPoint x="606" y="870" />
              <mxPoint x="606" y="620" />
              <mxPoint x="550" y="620" />
              <mxPoint x="550" y="220" />
            </Array>
          </mxGeometry>
        </mxCell>
        <mxCell id="GDJ8opukmi6f3HJeADg8-151" value="AUIPC Ctrl" style="text;html=1;align=center;verticalAlign=middle;resizable=0;points=[];autosize=1;strokeColor=none;fillColor=none;fontStyle=1;fontSize=13;fontColor=light-dark(#0629db, #ededed);" vertex="1" parent="1">
          <mxGeometry x="655" y="190" width="90" height="30" as="geometry" />
        </mxCell>
        <mxCell id="GDJ8opukmi6f3HJeADg8-153" style="edgeStyle=orthogonalEdgeStyle;rounded=0;orthogonalLoop=1;jettySize=auto;html=1;exitX=0;exitY=0.5;exitDx=0;exitDy=0;entryX=0;entryY=0.5;entryDx=0;entryDy=0;entryPerimeter=0;" edge="1" parent="1" source="GDJ8opukmi6f3HJeADg8-68" target="GDJ8opukmi6f3HJeADg8-142">
          <mxGeometry relative="1" as="geometry" />
        </mxCell>
      </root>
    </mxGraphModel>
  </diagram>
</mxfile>
